<?xml version="1.0" encoding="UTF-8" standalone="no"?>
<!-- Generator: Adobe Illustrator 15.0.0, SVG Export Plug-In . SVG Version: 6.00 Build 0)  -->

<svg
   version="1.1"
   id="Layer_2_1_"
   x="0px"
   y="0px"
   width="500"
   height="97.837997"
   viewBox="0 0 500.00001 97.838"
   enable-background="new 0 0 146.98 97.838"
   xml:space="preserve"
   sodipodi:docname="heder-image.svg"
   inkscape:version="1.1.1 (3bf5ae0d25, 2021-09-20)"
   xmlns:inkscape="http://www.inkscape.org/namespaces/inkscape"
   xmlns:sodipodi="http://sodipodi.sourceforge.net/DTD/sodipodi-0.dtd"
   xmlns:xlink="http://www.w3.org/1999/xlink"
   xmlns="http://www.w3.org/2000/svg"
   xmlns:svg="http://www.w3.org/2000/svg"><defs
   id="defs157" /><sodipodi:namedview
   id="namedview155"
   pagecolor="#ffffff"
   bordercolor="#666666"
   borderopacity="1.0"
   inkscape:pageshadow="2"
   inkscape:pageopacity="0.0"
   inkscape:pagecheckerboard="0"
   showgrid="false"
   width="500px"
   inkscape:zoom="1.6072488"
   inkscape:cx="282.78136"
   inkscape:cy="38.886326"
   inkscape:window-width="1600"
   inkscape:window-height="837"
   inkscape:window-x="-8"
   inkscape:window-y="-8"
   inkscape:window-maximized="1"
   inkscape:current-layer="Layer_2_1_" />
<g
   id="g152">
	<defs
   id="defs85">
		<rect
   id="SVGID_1_"
   x="15.572"
   y="23.601"
   width="114.021"
   height="54.691002" />
	</defs>
	<clipPath
   id="SVGID_2_">
		<use
   xlink:href="#SVGID_1_"
   overflow="visible"
   id="use87"
   x="0"
   y="0"
   width="100%"
   height="100%" />
	</clipPath>
	<path
   clip-path="url(#SVGID_2_)"
   fill="none"
   stroke="#20221d"
   stroke-width="1.8"
   d="m 19.712,24.501 c 0,0 -3.24,0 -3.24,3.24 v 46.41 c 0,0 0,3.24 3.24,3.24 h 105.741 c 0,0 3.24,0 3.24,-3.24 v -46.41 c 0,0 0,-3.24 -3.24,-3.24 H 19.712 Z"
   id="path90" />
	<path
   clip-path="url(#SVGID_2_)"
   fill="#20221d"
   d="m 43.614,63.057 c 0,0 -0.648,0 -0.648,0.647 v 5.624 c 0,0 0,0.648 0.648,0.648 h 57.662 c 0,0 0.648,0 0.648,-0.648 v -5.624 c 0,0 0,-0.647 -0.648,-0.647 z"
   id="path92" />
	<path
   clip-path="url(#SVGID_2_)"
   fill="#20221d"
   d="m 106.031,63.057 c 0,0 -0.648,0 -0.648,0.647 v 5.624 c 0,0 0,0.648 0.648,0.648 h 14.85 c 0,0 0.648,0 0.648,-0.648 v -5.624 c 0,0 0,-0.647 -0.648,-0.647 z"
   id="path94" />
	<path
   clip-path="url(#SVGID_2_)"
   fill="#20221d"
   d="m 24.146,63.057 c 0,0 -0.648,0 -0.648,0.647 v 5.624 c 0,0 0,0.648 0.648,0.648 h 14.85 c 0,0 0.648,0 0.648,-0.648 v -5.624 c 0,0 0,-0.647 -0.648,-0.647 z"
   id="path96" />
	<path
   clip-path="url(#SVGID_2_)"
   fill="#20221d"
   d="m 54.132,52.677 c 0,0 -0.647,0 -0.647,0.647 v 5.624 c 0,0 0,0.648 0.647,0.648 h 5.624 c 0,0 0.648,0 0.648,-0.648 v -5.624 c 0,0 0,-0.647 -0.648,-0.647 z"
   id="path98" />
	<path
   clip-path="url(#SVGID_2_)"
   fill="#20221d"
   d="m 43.752,52.677 c 0,0 -0.648,0 -0.648,0.647 v 5.624 c 0,0 0,0.648 0.648,0.648 h 5.624 c 0,0 0.647,0 0.647,-0.648 v -5.624 c 0,0 0,-0.647 -0.647,-0.647 z"
   id="path100" />
	<path
   clip-path="url(#SVGID_2_)"
   fill="#20221d"
   d="m 24.146,52.677 c 0,0 -0.648,0 -0.648,0.647 v 5.624 c 0,0 0,0.648 0.648,0.648 h 14.85 c 0,0 0.648,0 0.648,-0.648 v -5.624 c 0,0 0,-0.647 -0.648,-0.647 z"
   id="path102" />
	<path
   clip-path="url(#SVGID_2_)"
   fill="#20221d"
   d="m 64.512,52.677 c 0,0 -0.648,0 -0.648,0.647 v 5.624 c 0,0 0,0.648 0.648,0.648 h 5.624 c 0,0 0.647,0 0.647,-0.648 v -5.624 c 0,0 0,-0.647 -0.647,-0.647 z"
   id="path104" />
	<path
   clip-path="url(#SVGID_2_)"
   fill="#20221d"
   d="m 74.892,52.677 c 0,0 -0.647,0 -0.647,0.647 v 5.624 c 0,0 0,0.648 0.647,0.648 h 5.624 c 0,0 0.648,0 0.648,-0.648 v -5.624 c 0,0 0,-0.647 -0.648,-0.647 z"
   id="path106" />
	<path
   clip-path="url(#SVGID_2_)"
   fill="#20221d"
   d="m 85.271,52.677 c 0,0 -0.648,0 -0.648,0.647 v 5.624 c 0,0 0,0.648 0.648,0.648 h 5.624 c 0,0 0.647,0 0.647,-0.648 v -5.624 c 0,0 0,-0.647 -0.647,-0.647 z"
   id="path108" />
	<path
   clip-path="url(#SVGID_2_)"
   fill="#20221d"
   d="m 95.651,52.677 c 0,0 -0.647,0 -0.647,0.647 v 5.624 c 0,0 0,0.648 0.647,0.648 h 5.624 c 0,0 0.648,0 0.648,-0.648 v -5.624 c 0,0 0,-0.647 -0.648,-0.647 z"
   id="path110" />
	<path
   clip-path="url(#SVGID_2_)"
   fill="#20221d"
   d="m 106.031,52.677 c 0,0 -0.648,0 -0.648,0.647 v 5.624 c 0,0 0,0.648 0.648,0.648 h 14.989 c 0,0 0.647,0 0.647,-0.648 v -5.624 c 0,0 0,-0.647 -0.647,-0.647 z"
   id="path112" />
	<path
   clip-path="url(#SVGID_2_)"
   fill="#20221d"
   d="m 49.519,42.297 c 0,0 -0.648,0 -0.648,0.647 v 5.624 c 0,0 0,0.648 0.648,0.648 h 5.624 c 0,0 0.648,0 0.648,-0.648 v -5.624 c 0,0 0,-0.647 -0.648,-0.647 z"
   id="path114" />
	<path
   clip-path="url(#SVGID_2_)"
   fill="#20221d"
   d="m 39.139,42.297 c 0,0 -0.648,0 -0.648,0.647 v 5.624 c 0,0 0,0.648 0.648,0.648 h 5.624 c 0,0 0.648,0 0.648,-0.648 v -5.624 c 0,0 0,-0.647 -0.648,-0.647 z"
   id="path116" />
	<path
   clip-path="url(#SVGID_2_)"
   fill="#20221d"
   d="m 24.146,42.297 c 0,0 -0.648,0 -0.648,0.647 v 5.624 c 0,0 0,0.648 0.648,0.648 h 10.237 c 0,0 0.648,0 0.648,-0.648 v -5.624 c 0,0 0,-0.647 -0.648,-0.647 z"
   id="path118" />
	<path
   clip-path="url(#SVGID_2_)"
   fill="#20221d"
   d="m 59.898,42.297 c 0,0 -0.648,0 -0.648,0.647 v 5.624 c 0,0 0,0.648 0.648,0.648 h 5.624 c 0,0 0.648,0 0.648,-0.648 v -5.624 c 0,0 0,-0.647 -0.648,-0.647 z"
   id="path120" />
	<path
   clip-path="url(#SVGID_2_)"
   fill="#20221d"
   d="m 70.278,42.297 c 0,0 -0.647,0 -0.647,0.647 v 5.624 c 0,0 0,0.648 0.647,0.648 h 5.624 c 0,0 0.648,0 0.648,-0.648 v -5.624 c 0,0 0,-0.647 -0.648,-0.647 z"
   id="path122" />
	<path
   clip-path="url(#SVGID_2_)"
   fill="#20221d"
   d="m 80.658,42.297 c 0,0 -0.648,0 -0.648,0.647 v 5.624 c 0,0 0,0.648 0.648,0.648 h 5.624 c 0,0 0.647,0 0.647,-0.648 v -5.624 c 0,0 0,-0.647 -0.647,-0.647 z"
   id="path124" />
	<path
   clip-path="url(#SVGID_2_)"
   fill="#20221d"
   d="m 91.038,42.297 c 0,0 -0.647,0 -0.647,0.647 v 5.624 c 0,0 0,0.648 0.647,0.648 h 5.624 c 0,0 0.648,0 0.648,-0.648 v -5.624 c 0,0 0,-0.647 -0.648,-0.647 z"
   id="path126" />
	<path
   clip-path="url(#SVGID_2_)"
   fill="#20221d"
   d="m 101.418,42.297 c 0,0 -0.648,0 -0.648,0.647 v 5.624 c 0,0 0,0.648 0.648,0.648 h 5.624 c 0,0 0.647,0 0.647,-0.648 v -5.624 c 0,0 0,-0.647 -0.647,-0.647 z"
   id="path128" />
	<path
   clip-path="url(#SVGID_2_)"
   fill="#20221d"
   d="m 111.798,42.297 c 0,0 -0.647,0 -0.647,0.647 v 5.624 c 0,0 0,0.648 0.647,0.648 h 9.222 c 0,0 0.648,0 0.648,-0.648 v -5.624 c 0,0 0,-0.647 -0.648,-0.647 z"
   id="path130" />
	<path
   clip-path="url(#SVGID_2_)"
   fill="#20221d"
   d="m 74.635,31.916 c 0,0 -0.647,0 -0.647,0.648 v 5.624 c 0,0 0,0.648 0.647,0.648 h 5.625 c 0,0 0.647,0 0.647,-0.648 v -5.624 c 0,0 0,-0.648 -0.647,-0.648 z"
   id="path132" />
	<path
   clip-path="url(#SVGID_2_)"
   fill="#20221d"
   d="m 64.537,31.916 c 0,0 -0.647,0 -0.647,0.648 v 5.624 c 0,0 0,0.648 0.647,0.648 h 5.625 c 0,0 0.647,0 0.647,-0.648 v -5.624 c 0,0 0,-0.648 -0.647,-0.648 z"
   id="path134" />
	<path
   clip-path="url(#SVGID_2_)"
   fill="#20221d"
   d="m 54.439,31.916 c 0,0 -0.648,0 -0.648,0.648 v 5.624 c 0,0 0,0.648 0.648,0.648 h 5.624 c 0,0 0.647,0 0.647,-0.648 v -5.624 c 0,0 0,-0.648 -0.647,-0.648 z"
   id="path136" />
	<path
   clip-path="url(#SVGID_2_)"
   fill="#20221d"
   d="m 44.342,31.916 c 0,0 -0.648,0 -0.648,0.648 v 5.624 c 0,0 0,0.648 0.648,0.648 h 5.624 c 0,0 0.647,0 0.647,-0.648 v -5.624 c 0,0 0,-0.648 -0.647,-0.648 z"
   id="path138" />
	<path
   clip-path="url(#SVGID_2_)"
   fill="#20221d"
   d="m 34.244,31.916 c 0,0 -0.648,0 -0.648,0.648 v 5.624 c 0,0 0,0.648 0.648,0.648 h 5.624 c 0,0 0.648,0 0.648,-0.648 v -5.624 c 0,0 0,-0.648 -0.648,-0.648 z"
   id="path140" />
	<path
   clip-path="url(#SVGID_2_)"
   fill="#20221d"
   d="m 24.146,31.916 c 0,0 -0.648,0 -0.648,0.648 v 5.624 c 0,0 0,0.648 0.648,0.648 h 5.624 c 0,0 0.648,0 0.648,-0.648 v -5.624 c 0,0 0,-0.648 -0.648,-0.648 z"
   id="path142" />
	<path
   clip-path="url(#SVGID_2_)"
   fill="#20221d"
   d="m 84.733,31.916 c 0,0 -0.647,0 -0.647,0.648 v 5.624 c 0,0 0,0.648 0.647,0.648 h 5.624 c 0,0 0.648,0 0.648,-0.648 v -5.624 c 0,0 0,-0.648 -0.648,-0.648 z"
   id="path144" />
	<path
   clip-path="url(#SVGID_2_)"
   fill="#20221d"
   d="m 94.832,31.916 c 0,0 -0.648,0 -0.648,0.648 v 5.624 c 0,0 0,0.648 0.648,0.648 h 5.623 c 0,0 0.648,0 0.648,-0.648 v -5.624 c 0,0 0,-0.648 -0.648,-0.648 z"
   id="path146" />
	<path
   clip-path="url(#SVGID_2_)"
   fill="#20221d"
   d="m 104.93,31.916 c 0,0 -0.648,0 -0.648,0.648 v 5.624 c 0,0 0,0.648 0.648,0.648 h 5.623 c 0,0 0.648,0 0.648,-0.648 v -5.624 c 0,0 0,-0.648 -0.648,-0.648 z"
   id="path148" />
	<path
   clip-path="url(#SVGID_2_)"
   fill="#20221d"
   d="m 115.027,31.916 c 0,0 -0.648,0 -0.648,0.648 v 5.624 c 0,0 0,0.648 0.648,0.648 h 5.624 c 0,0 0.647,0 0.647,-0.648 v -5.624 c 0,0 0,-0.648 -0.647,-0.648 z"
   id="path150" />
</g>
<text
   xml:space="preserve"
   style="font-style:normal;font-variant:normal;font-weight:normal;font-stretch:normal;font-size:66.6667px;line-height:1.25;font-family:montserr;-inkscape-font-specification:montserr;letter-spacing:0.91px"
   x="144.34604"
   y="73.417381"
   id="text3233"><tspan
     sodipodi:role="line"
     x="144.34604"
     y="73.417381"
     style="font-style:normal;font-variant:normal;font-weight:normal;font-stretch:normal;font-size:66.6667px;font-family:'Times New Roman';-inkscape-font-specification:'Times New Roman, '"
     id="tspan17899"
     dx="-5">Klávesnice</tspan></text></svg>
